<mxfile host="Electron" modified="2023-11-21T11:28:07.770Z" agent="Mozilla/5.0 (Windows NT 10.0; Win64; x64) AppleWebKit/537.36 (KHTML, like Gecko) draw.io/22.0.3 Chrome/114.0.5735.289 Electron/25.8.4 Safari/537.36" etag="pMv14K1vo8grcpABSxCD" version="22.0.3" type="device">
  <diagram id="cX9Rxq1GDXvq4FwfHjqG" name="Page-1">
    <mxGraphModel dx="2268" dy="1928" grid="1" gridSize="10" guides="1" tooltips="1" connect="1" arrows="1" fold="1" page="1" pageScale="1" pageWidth="850" pageHeight="1100" math="0" shadow="0">
      <root>
        <mxCell id="0" />
        <mxCell id="1" parent="0" />
        <object label="" kardinalnost="(0,M)" id="p6OjkSHZk2NeHFK_y6Gc-2">
          <mxCell style="rounded=0;orthogonalLoop=1;jettySize=auto;html=1;exitX=0.5;exitY=1;exitDx=0;exitDy=0;endArrow=none;endFill=0;targetPerimeterSpacing=0;entryX=0.5;entryY=0;entryDx=0;entryDy=0;" parent="1" target="dR7-cXVYRjZlP15LV4le-50" edge="1">
            <mxGeometry relative="1" as="geometry">
              <mxPoint x="169.5" y="330" as="targetPoint" />
              <mxPoint x="169.5" y="200" as="sourcePoint" />
            </mxGeometry>
          </mxCell>
        </object>
        <mxCell id="p6OjkSHZk2NeHFK_y6Gc-15" value="&lt;font style=&quot;font-size: 12px;&quot;&gt;(1,1)&amp;nbsp; Evidentiran&lt;/font&gt;" style="edgeLabel;html=1;align=center;verticalAlign=middle;resizable=0;points=[];fontSize=12;" parent="p6OjkSHZk2NeHFK_y6Gc-2" vertex="1" connectable="0">
          <mxGeometry x="-0.7692" y="3" relative="1" as="geometry">
            <mxPoint x="26" y="7" as="offset" />
          </mxGeometry>
        </mxCell>
        <mxCell id="dR7-cXVYRjZlP15LV4le-53" style="rounded=0;orthogonalLoop=1;jettySize=auto;html=1;exitX=1;exitY=0.5;exitDx=0;exitDy=0;entryX=0.5;entryY=1;entryDx=0;entryDy=0;endArrow=none;endFill=0;" parent="1" source="MHaZ8JLug0pjG2hCf8hZ-29" target="dR7-cXVYRjZlP15LV4le-54" edge="1">
          <mxGeometry relative="1" as="geometry">
            <mxPoint x="217.52941176470586" y="70" as="targetPoint" />
          </mxGeometry>
        </mxCell>
        <mxCell id="dR7-cXVYRjZlP15LV4le-65" style="rounded=0;orthogonalLoop=1;jettySize=auto;html=1;exitX=1;exitY=1;exitDx=0;exitDy=0;endArrow=none;endFill=0;" parent="1" source="p6OjkSHZk2NeHFK_y6Gc-1" edge="1">
          <mxGeometry relative="1" as="geometry">
            <mxPoint x="320" y="220" as="targetPoint" />
          </mxGeometry>
        </mxCell>
        <mxCell id="MHaZ8JLug0pjG2hCf8hZ-30" style="edgeStyle=orthogonalEdgeStyle;rounded=0;orthogonalLoop=1;jettySize=auto;html=1;exitX=0.5;exitY=0;exitDx=0;exitDy=0;entryX=0.5;entryY=1;entryDx=0;entryDy=0;" parent="1" source="p6OjkSHZk2NeHFK_y6Gc-1" target="MHaZ8JLug0pjG2hCf8hZ-29" edge="1">
          <mxGeometry relative="1" as="geometry" />
        </mxCell>
        <mxCell id="p6OjkSHZk2NeHFK_y6Gc-1" value="&lt;font style=&quot;font-size: 14px;&quot;&gt;Evidencija o osposobljavanju zaposlenih&lt;/font&gt;" style="rounded=0;whiteSpace=wrap;html=1;fontSize=14;" parent="1" vertex="1">
          <mxGeometry x="120" y="120" width="130" height="80" as="geometry" />
        </mxCell>
        <mxCell id="dR7-cXVYRjZlP15LV4le-43" style="rounded=0;orthogonalLoop=1;jettySize=auto;html=1;exitX=1;exitY=0.5;exitDx=0;exitDy=0;entryX=0;entryY=0.5;entryDx=0;entryDy=0;endArrow=none;endFill=0;" parent="1" source="dR7-cXVYRjZlP15LV4le-46" target="dR7-cXVYRjZlP15LV4le-42" edge="1">
          <mxGeometry relative="1" as="geometry">
            <mxPoint x="235" y="355" as="sourcePoint" />
          </mxGeometry>
        </mxCell>
        <mxCell id="p6OjkSHZk2NeHFK_y6Gc-17" value="" style="endArrow=none;html=1;rounded=0;entryX=0;entryY=0.5;entryDx=0;entryDy=0;exitX=1;exitY=0.5;exitDx=0;exitDy=0;" parent="1" source="dR7-cXVYRjZlP15LV4le-47" target="dR7-cXVYRjZlP15LV4le-46" edge="1">
          <mxGeometry width="50" height="50" relative="1" as="geometry">
            <mxPoint x="34.000000000000455" y="352.9999999999998" as="sourcePoint" />
            <mxPoint x="125" y="342.5" as="targetPoint" />
          </mxGeometry>
        </mxCell>
        <mxCell id="p6OjkSHZk2NeHFK_y6Gc-18" value="&lt;font style=&quot;font-size: 14px;&quot;&gt;Poslodavac&lt;/font&gt;" style="whiteSpace=wrap;html=1;align=center;" parent="1" vertex="1">
          <mxGeometry x="630" y="150" width="100" height="40" as="geometry" />
        </mxCell>
        <mxCell id="p6OjkSHZk2NeHFK_y6Gc-20" value="" style="edgeStyle=orthogonalEdgeStyle;rounded=0;orthogonalLoop=1;jettySize=auto;html=1;endArrow=none;endFill=0;" parent="1" source="p6OjkSHZk2NeHFK_y6Gc-19" target="p6OjkSHZk2NeHFK_y6Gc-1" edge="1">
          <mxGeometry relative="1" as="geometry" />
        </mxCell>
        <mxCell id="p6OjkSHZk2NeHFK_y6Gc-23" value="&lt;font style=&quot;font-size: 12px;&quot;&gt;(1,1) Overena&lt;/font&gt;" style="edgeLabel;html=1;align=center;verticalAlign=middle;resizable=0;points=[];fontSize=12;" parent="p6OjkSHZk2NeHFK_y6Gc-20" vertex="1" connectable="0">
          <mxGeometry x="0.3385" y="1" relative="1" as="geometry">
            <mxPoint x="17" y="-6" as="offset" />
          </mxGeometry>
        </mxCell>
        <mxCell id="p6OjkSHZk2NeHFK_y6Gc-21" style="edgeStyle=orthogonalEdgeStyle;rounded=0;orthogonalLoop=1;jettySize=auto;html=1;exitX=1;exitY=0.5;exitDx=0;exitDy=0;entryX=0;entryY=0.5;entryDx=0;entryDy=0;endArrow=none;endFill=0;" parent="1" source="p6OjkSHZk2NeHFK_y6Gc-19" target="p6OjkSHZk2NeHFK_y6Gc-18" edge="1">
          <mxGeometry relative="1" as="geometry" />
        </mxCell>
        <mxCell id="p6OjkSHZk2NeHFK_y6Gc-24" value="(0,M) Overava" style="edgeLabel;html=1;align=center;verticalAlign=middle;resizable=0;points=[];fontSize=12;" parent="p6OjkSHZk2NeHFK_y6Gc-21" vertex="1" connectable="0">
          <mxGeometry x="-0.0364" y="3" relative="1" as="geometry">
            <mxPoint x="-3" y="-7" as="offset" />
          </mxGeometry>
        </mxCell>
        <mxCell id="p6OjkSHZk2NeHFK_y6Gc-19" value="overavanje evidencije" style="shape=rhombus;perimeter=rhombusPerimeter;whiteSpace=wrap;html=1;align=center;" parent="1" vertex="1">
          <mxGeometry x="370" y="135" width="150" height="70" as="geometry" />
        </mxCell>
        <mxCell id="p6OjkSHZk2NeHFK_y6Gc-27" value="PIB#" style="ellipse;whiteSpace=wrap;html=1;align=center;" parent="1" vertex="1">
          <mxGeometry x="760" y="99" width="60" height="30" as="geometry" />
        </mxCell>
        <mxCell id="p6OjkSHZk2NeHFK_y6Gc-28" value="" style="endArrow=none;html=1;rounded=0;entryX=1;entryY=0;entryDx=0;entryDy=0;exitX=0;exitY=1;exitDx=0;exitDy=0;" parent="1" source="p6OjkSHZk2NeHFK_y6Gc-27" target="p6OjkSHZk2NeHFK_y6Gc-18" edge="1">
          <mxGeometry width="50" height="50" relative="1" as="geometry">
            <mxPoint x="620" y="220" as="sourcePoint" />
            <mxPoint x="715" y="213" as="targetPoint" />
          </mxGeometry>
        </mxCell>
        <mxCell id="p6OjkSHZk2NeHFK_y6Gc-31" value="poslovno ime" style="ellipse;whiteSpace=wrap;html=1;align=center;" parent="1" vertex="1">
          <mxGeometry x="640" y="40" width="80" height="40" as="geometry" />
        </mxCell>
        <mxCell id="p6OjkSHZk2NeHFK_y6Gc-32" value="" style="endArrow=none;html=1;rounded=0;entryX=0.63;entryY=0.025;entryDx=0;entryDy=0;exitX=0.5;exitY=1;exitDx=0;exitDy=0;entryPerimeter=0;" parent="1" source="p6OjkSHZk2NeHFK_y6Gc-31" target="p6OjkSHZk2NeHFK_y6Gc-18" edge="1">
          <mxGeometry width="50" height="50" relative="1" as="geometry">
            <mxPoint x="780" y="280" as="sourcePoint" />
            <mxPoint x="875" y="263" as="targetPoint" />
          </mxGeometry>
        </mxCell>
        <mxCell id="p6OjkSHZk2NeHFK_y6Gc-33" value="id#" style="ellipse;whiteSpace=wrap;html=1;align=center;" parent="1" vertex="1">
          <mxGeometry x="250" y="70" width="70" height="30" as="geometry" />
        </mxCell>
        <mxCell id="p6OjkSHZk2NeHFK_y6Gc-34" value="" style="endArrow=none;html=1;rounded=0;entryX=1;entryY=0;entryDx=0;entryDy=0;exitX=0.28;exitY=0.95;exitDx=0;exitDy=0;exitPerimeter=0;" parent="1" source="p6OjkSHZk2NeHFK_y6Gc-33" target="p6OjkSHZk2NeHFK_y6Gc-1" edge="1">
          <mxGeometry width="50" height="50" relative="1" as="geometry">
            <mxPoint x="220" y="279" as="sourcePoint" />
            <mxPoint x="206" y="140" as="targetPoint" />
          </mxGeometry>
        </mxCell>
        <mxCell id="p6OjkSHZk2NeHFK_y6Gc-37" style="edgeStyle=orthogonalEdgeStyle;rounded=0;orthogonalLoop=1;jettySize=auto;html=1;exitX=1;exitY=0.5;exitDx=0;exitDy=0;entryX=0;entryY=0.5;entryDx=0;entryDy=0;endArrow=none;endFill=0;" parent="1" source="p6OjkSHZk2NeHFK_y6Gc-39" target="p6OjkSHZk2NeHFK_y6Gc-1" edge="1">
          <mxGeometry relative="1" as="geometry">
            <mxPoint x="80" y="165" as="targetPoint" />
          </mxGeometry>
        </mxCell>
        <mxCell id="p6OjkSHZk2NeHFK_y6Gc-38" value="(1,1) Overeno od strane" style="edgeLabel;html=1;align=center;verticalAlign=middle;resizable=0;points=[];fontSize=12;" parent="p6OjkSHZk2NeHFK_y6Gc-37" vertex="1" connectable="0">
          <mxGeometry x="-0.0364" y="3" relative="1" as="geometry">
            <mxPoint x="-2" y="-18" as="offset" />
          </mxGeometry>
        </mxCell>
        <mxCell id="p6OjkSHZk2NeHFK_y6Gc-40" style="edgeStyle=orthogonalEdgeStyle;rounded=0;orthogonalLoop=1;jettySize=auto;html=1;exitX=0;exitY=0.5;exitDx=0;exitDy=0;endArrow=none;endFill=0;entryX=1;entryY=0.5;entryDx=0;entryDy=0;" parent="1" source="p6OjkSHZk2NeHFK_y6Gc-39" target="p6OjkSHZk2NeHFK_y6Gc-42" edge="1">
          <mxGeometry relative="1" as="geometry">
            <mxPoint x="-330" y="170" as="targetPoint" />
          </mxGeometry>
        </mxCell>
        <mxCell id="p6OjkSHZk2NeHFK_y6Gc-39" value="Vodjenje evidencije" style="shape=rhombus;perimeter=rhombusPerimeter;whiteSpace=wrap;html=1;align=center;" parent="1" vertex="1">
          <mxGeometry x="-180" y="135" width="150" height="70" as="geometry" />
        </mxCell>
        <mxCell id="p6OjkSHZk2NeHFK_y6Gc-41" value="(0,M) Overava" style="edgeLabel;html=1;align=center;verticalAlign=middle;resizable=0;points=[];fontSize=12;" parent="1" vertex="1" connectable="0">
          <mxGeometry x="-249.99529411764684" y="160" as="geometry">
            <mxPoint x="-6" y="-5" as="offset" />
          </mxGeometry>
        </mxCell>
        <mxCell id="p6OjkSHZk2NeHFK_y6Gc-42" value="&lt;font style=&quot;font-size: 14px;&quot;&gt;Lice za bezbednost&lt;/font&gt;" style="whiteSpace=wrap;html=1;align=center;" parent="1" vertex="1">
          <mxGeometry x="-425" y="150" width="100" height="40" as="geometry" />
        </mxCell>
        <mxCell id="p6OjkSHZk2NeHFK_y6Gc-43" value="ime" style="ellipse;whiteSpace=wrap;html=1;align=center;" parent="1" vertex="1">
          <mxGeometry x="-520" y="70" width="60" height="29" as="geometry" />
        </mxCell>
        <mxCell id="p6OjkSHZk2NeHFK_y6Gc-44" value="" style="endArrow=none;html=1;rounded=0;entryX=0.08;entryY=0.049;entryDx=0;entryDy=0;exitX=1;exitY=1;exitDx=0;exitDy=0;entryPerimeter=0;" parent="1" source="p6OjkSHZk2NeHFK_y6Gc-43" target="p6OjkSHZk2NeHFK_y6Gc-42" edge="1">
          <mxGeometry width="50" height="50" relative="1" as="geometry">
            <mxPoint x="-400" y="289" as="sourcePoint" />
            <mxPoint x="-414" y="150" as="targetPoint" />
          </mxGeometry>
        </mxCell>
        <mxCell id="p6OjkSHZk2NeHFK_y6Gc-45" value="id#" style="ellipse;whiteSpace=wrap;html=1;align=center;" parent="1" vertex="1">
          <mxGeometry x="-340" y="70" width="60" height="29" as="geometry" />
        </mxCell>
        <mxCell id="p6OjkSHZk2NeHFK_y6Gc-46" value="" style="endArrow=none;html=1;rounded=0;entryX=0.845;entryY=0.019;entryDx=0;entryDy=0;exitX=0;exitY=1;exitDx=0;exitDy=0;entryPerimeter=0;" parent="1" source="p6OjkSHZk2NeHFK_y6Gc-45" target="p6OjkSHZk2NeHFK_y6Gc-42" edge="1">
          <mxGeometry width="50" height="50" relative="1" as="geometry">
            <mxPoint x="-440" y="219" as="sourcePoint" />
            <mxPoint x="-330" y="149" as="targetPoint" />
          </mxGeometry>
        </mxCell>
        <mxCell id="p6OjkSHZk2NeHFK_y6Gc-47" value="prezime" style="ellipse;whiteSpace=wrap;html=1;align=center;" parent="1" vertex="1">
          <mxGeometry x="-440" y="65.5" width="80" height="29" as="geometry" />
        </mxCell>
        <mxCell id="p6OjkSHZk2NeHFK_y6Gc-48" value="" style="endArrow=none;html=1;rounded=0;entryX=0.621;entryY=-0.04;entryDx=0;entryDy=0;exitX=0.5;exitY=1;exitDx=0;exitDy=0;entryPerimeter=0;" parent="1" source="p6OjkSHZk2NeHFK_y6Gc-47" target="p6OjkSHZk2NeHFK_y6Gc-42" edge="1">
          <mxGeometry width="50" height="50" relative="1" as="geometry">
            <mxPoint x="-280" y="279" as="sourcePoint" />
            <mxPoint x="-367" y="150" as="targetPoint" />
          </mxGeometry>
        </mxCell>
        <mxCell id="XjySdd2gi-GwcaV57Ylc-37" value="" style="rounded=0;orthogonalLoop=1;jettySize=auto;html=1;exitX=1;exitY=0.5;exitDx=0;exitDy=0;entryX=0;entryY=0.5;entryDx=0;entryDy=0;endArrow=none;endFill=0;" parent="1" source="dR7-cXVYRjZlP15LV4le-10" target="XjySdd2gi-GwcaV57Ylc-36" edge="1">
          <mxGeometry relative="1" as="geometry">
            <mxPoint x="-140" y="550" as="sourcePoint" />
          </mxGeometry>
        </mxCell>
        <mxCell id="XjySdd2gi-GwcaV57Ylc-36" value="Radi" style="rhombus;whiteSpace=wrap;html=1;" parent="1" vertex="1">
          <mxGeometry x="80" y="480" width="130" height="80" as="geometry" />
        </mxCell>
        <mxCell id="XjySdd2gi-GwcaV57Ylc-39" style="edgeStyle=orthogonalEdgeStyle;rounded=0;orthogonalLoop=1;jettySize=auto;html=1;exitX=1;exitY=0.5;exitDx=0;exitDy=0;entryX=0.873;entryY=1.04;entryDx=0;entryDy=0;entryPerimeter=0;endArrow=none;endFill=0;" parent="1" source="XjySdd2gi-GwcaV57Ylc-36" edge="1">
          <mxGeometry relative="1" as="geometry">
            <mxPoint x="221.0300000000002" y="382" as="targetPoint" />
          </mxGeometry>
        </mxCell>
        <mxCell id="XjySdd2gi-GwcaV57Ylc-40" value="(0,M) Zaposljava" style="edgeLabel;html=1;align=center;verticalAlign=middle;resizable=0;points=[];fontSize=12;" parent="1" vertex="1" connectable="0">
          <mxGeometry x="-29.995294117646836" y="550" as="geometry">
            <mxPoint x="-15" y="-6" as="offset" />
          </mxGeometry>
        </mxCell>
        <mxCell id="XjySdd2gi-GwcaV57Ylc-41" value="(0,1) Zaposljen" style="edgeLabel;html=1;align=center;verticalAlign=middle;resizable=0;points=[];fontSize=12;" parent="1" vertex="1" connectable="0">
          <mxGeometry x="250.00470588235316" y="450" as="geometry">
            <mxPoint x="-17" y="-3" as="offset" />
          </mxGeometry>
        </mxCell>
        <mxCell id="dR7-cXVYRjZlP15LV4le-10" value="Radno mesto" style="rounded=0;whiteSpace=wrap;html=1;fontSize=14;" parent="1" vertex="1">
          <mxGeometry x="-270" y="511" width="120" height="60" as="geometry" />
        </mxCell>
        <mxCell id="dR7-cXVYRjZlP15LV4le-13" value="id#" style="ellipse;whiteSpace=wrap;html=1;align=center;" parent="1" vertex="1">
          <mxGeometry x="-250" y="430" width="60" height="31.5" as="geometry" />
        </mxCell>
        <mxCell id="dR7-cXVYRjZlP15LV4le-14" value="" style="endArrow=none;html=1;rounded=0;entryX=0.25;entryY=0;entryDx=0;entryDy=0;exitX=0.28;exitY=0.95;exitDx=0;exitDy=0;exitPerimeter=0;" parent="1" source="dR7-cXVYRjZlP15LV4le-13" target="dR7-cXVYRjZlP15LV4le-10" edge="1">
          <mxGeometry width="50" height="50" relative="1" as="geometry">
            <mxPoint x="-200" y="660.5" as="sourcePoint" />
            <mxPoint x="-250" y="500.5" as="targetPoint" />
          </mxGeometry>
        </mxCell>
        <mxCell id="dR7-cXVYRjZlP15LV4le-35" value="opis poslova" style="ellipse;whiteSpace=wrap;html=1;" parent="1" vertex="1">
          <mxGeometry x="-247.5" y="600" width="75" height="39" as="geometry" />
        </mxCell>
        <mxCell id="dR7-cXVYRjZlP15LV4le-36" style="rounded=0;orthogonalLoop=1;jettySize=auto;html=1;exitX=0.5;exitY=0;exitDx=0;exitDy=0;entryX=0.5;entryY=1;entryDx=0;entryDy=0;endArrow=none;endFill=0;" parent="1" source="dR7-cXVYRjZlP15LV4le-35" target="dR7-cXVYRjZlP15LV4le-10" edge="1">
          <mxGeometry relative="1" as="geometry">
            <mxPoint x="-140" y="576" as="targetPoint" />
          </mxGeometry>
        </mxCell>
        <mxCell id="dR7-cXVYRjZlP15LV4le-40" style="rounded=0;orthogonalLoop=1;jettySize=auto;html=1;exitX=0;exitY=1;exitDx=0;exitDy=0;entryX=0.75;entryY=0;entryDx=0;entryDy=0;endArrow=none;endFill=0;" parent="1" source="dR7-cXVYRjZlP15LV4le-41" target="dR7-cXVYRjZlP15LV4le-10" edge="1">
          <mxGeometry relative="1" as="geometry" />
        </mxCell>
        <mxCell id="dR7-cXVYRjZlP15LV4le-41" value="naziv rm" style="ellipse;whiteSpace=wrap;html=1;" parent="1" vertex="1">
          <mxGeometry x="-150" y="450" width="70" height="31" as="geometry" />
        </mxCell>
        <mxCell id="dR7-cXVYRjZlP15LV4le-42" value="prezime" style="ellipse;whiteSpace=wrap;html=1;" parent="1" vertex="1">
          <mxGeometry x="320" y="340" width="70" height="40" as="geometry" />
        </mxCell>
        <mxCell id="dR7-cXVYRjZlP15LV4le-44" style="rounded=0;orthogonalLoop=1;jettySize=auto;html=1;exitX=0.958;exitY=1;exitDx=0;exitDy=0;entryX=0;entryY=0.5;entryDx=0;entryDy=0;endArrow=none;endFill=0;exitPerimeter=0;" parent="1" source="dR7-cXVYRjZlP15LV4le-46" target="dR7-cXVYRjZlP15LV4le-45" edge="1">
          <mxGeometry relative="1" as="geometry">
            <mxPoint x="235" y="380" as="sourcePoint" />
          </mxGeometry>
        </mxCell>
        <mxCell id="dR7-cXVYRjZlP15LV4le-45" value="jmbg#" style="ellipse;whiteSpace=wrap;html=1;" parent="1" vertex="1">
          <mxGeometry x="340" y="410" width="70" height="41" as="geometry" />
        </mxCell>
        <mxCell id="dR7-cXVYRjZlP15LV4le-46" value="Zaposleni" style="rounded=0;whiteSpace=wrap;html=1;fontSize=14;" parent="1" vertex="1">
          <mxGeometry x="125" y="330" width="120" height="60" as="geometry" />
        </mxCell>
        <mxCell id="dR7-cXVYRjZlP15LV4le-47" value="ime" style="ellipse;whiteSpace=wrap;html=1;align=center;" parent="1" vertex="1">
          <mxGeometry x="-30" y="330" width="60" height="30" as="geometry" />
        </mxCell>
        <mxCell id="dR7-cXVYRjZlP15LV4le-51" style="rounded=0;orthogonalLoop=1;jettySize=auto;html=1;exitX=0.5;exitY=1;exitDx=0;exitDy=0;entryX=0.386;entryY=0.045;entryDx=0;entryDy=0;endArrow=none;endFill=0;entryPerimeter=0;" parent="1" source="dR7-cXVYRjZlP15LV4le-50" target="dR7-cXVYRjZlP15LV4le-46" edge="1">
          <mxGeometry relative="1" as="geometry" />
        </mxCell>
        <mxCell id="dR7-cXVYRjZlP15LV4le-52" value="&lt;font style=&quot;font-size: 12px;&quot;&gt;(0,1) Ima&lt;/font&gt;" style="edgeLabel;html=1;align=center;verticalAlign=middle;resizable=0;points=[];" parent="dR7-cXVYRjZlP15LV4le-51" vertex="1" connectable="0">
          <mxGeometry x="0.3613" y="4" relative="1" as="geometry">
            <mxPoint x="23" y="-13" as="offset" />
          </mxGeometry>
        </mxCell>
        <mxCell id="dR7-cXVYRjZlP15LV4le-50" value="Evidentiranje" style="rhombus;whiteSpace=wrap;html=1;" parent="1" vertex="1">
          <mxGeometry x="130" y="230" width="80" height="80" as="geometry" />
        </mxCell>
        <mxCell id="dR7-cXVYRjZlP15LV4le-54" value="datum teorijskog osposobljavanja" style="ellipse;whiteSpace=wrap;html=1;" parent="1" vertex="1">
          <mxGeometry x="260" y="-140" width="100" height="50" as="geometry" />
        </mxCell>
        <mxCell id="dR7-cXVYRjZlP15LV4le-55" style="rounded=0;orthogonalLoop=1;jettySize=auto;html=1;exitX=0.25;exitY=0;exitDx=0;exitDy=0;entryX=0.5;entryY=1;entryDx=0;entryDy=0;endArrow=none;endFill=0;" parent="1" source="MHaZ8JLug0pjG2hCf8hZ-29" target="dR7-cXVYRjZlP15LV4le-56" edge="1">
          <mxGeometry relative="1" as="geometry">
            <mxPoint x="97.52941176470586" y="70" as="targetPoint" />
            <mxPoint x="98" y="120" as="sourcePoint" />
          </mxGeometry>
        </mxCell>
        <mxCell id="dR7-cXVYRjZlP15LV4le-56" value="datum prakticnog osposobljavanja" style="ellipse;whiteSpace=wrap;html=1;" parent="1" vertex="1">
          <mxGeometry x="50" y="-160" width="100" height="50" as="geometry" />
        </mxCell>
        <mxCell id="dR7-cXVYRjZlP15LV4le-57" style="rounded=0;orthogonalLoop=1;jettySize=auto;html=1;entryX=1;entryY=1;entryDx=0;entryDy=0;endArrow=none;endFill=0;" parent="1" source="MHaZ8JLug0pjG2hCf8hZ-29" target="dR7-cXVYRjZlP15LV4le-58" edge="1">
          <mxGeometry relative="1" as="geometry">
            <mxPoint x="-12.470588235294144" y="59" as="targetPoint" />
            <mxPoint x="120" y="-40" as="sourcePoint" />
          </mxGeometry>
        </mxCell>
        <mxCell id="dR7-cXVYRjZlP15LV4le-58" value="datum teorijske provere" style="ellipse;whiteSpace=wrap;html=1;" parent="1" vertex="1">
          <mxGeometry x="-30" y="-90" width="100" height="50" as="geometry" />
        </mxCell>
        <mxCell id="dR7-cXVYRjZlP15LV4le-59" style="rounded=0;orthogonalLoop=1;jettySize=auto;html=1;exitX=0.618;exitY=-0.02;exitDx=0;exitDy=0;entryX=0.5;entryY=1;entryDx=0;entryDy=0;endArrow=none;endFill=0;exitPerimeter=0;" parent="1" source="MHaZ8JLug0pjG2hCf8hZ-29" target="dR7-cXVYRjZlP15LV4le-60" edge="1">
          <mxGeometry relative="1" as="geometry">
            <mxPoint x="-132.47058823529414" y="59" as="targetPoint" />
            <mxPoint x="-65" y="107" as="sourcePoint" />
          </mxGeometry>
        </mxCell>
        <mxCell id="dR7-cXVYRjZlP15LV4le-60" value="datum prakticne provere" style="ellipse;whiteSpace=wrap;html=1;" parent="1" vertex="1">
          <mxGeometry x="160" y="-170" width="100" height="50" as="geometry" />
        </mxCell>
        <mxCell id="dR7-cXVYRjZlP15LV4le-62" style="rounded=0;orthogonalLoop=1;jettySize=auto;html=1;exitX=1;exitY=0;exitDx=0;exitDy=0;entryX=0;entryY=0.75;entryDx=0;entryDy=0;endArrow=none;endFill=0;" parent="1" source="dR7-cXVYRjZlP15LV4le-61" target="p6OjkSHZk2NeHFK_y6Gc-1" edge="1">
          <mxGeometry relative="1" as="geometry" />
        </mxCell>
        <mxCell id="dR7-cXVYRjZlP15LV4le-61" value="rizici" style="ellipse;whiteSpace=wrap;html=1;" parent="1" vertex="1">
          <mxGeometry x="-20" y="190" width="60" height="40" as="geometry" />
        </mxCell>
        <mxCell id="dR7-cXVYRjZlP15LV4le-63" style="rounded=0;orthogonalLoop=1;jettySize=auto;html=1;exitX=1;exitY=0;exitDx=0;exitDy=0;entryX=0.103;entryY=1.032;entryDx=0;entryDy=0;endArrow=none;endFill=0;entryPerimeter=0;" parent="1" source="dR7-cXVYRjZlP15LV4le-64" target="p6OjkSHZk2NeHFK_y6Gc-1" edge="1">
          <mxGeometry relative="1" as="geometry">
            <mxPoint x="150" y="220" as="targetPoint" />
          </mxGeometry>
        </mxCell>
        <mxCell id="dR7-cXVYRjZlP15LV4le-64" value="uputstva" style="ellipse;whiteSpace=wrap;html=1;" parent="1" vertex="1">
          <mxGeometry x="10" y="230" width="60" height="40" as="geometry" />
        </mxCell>
        <mxCell id="dR7-cXVYRjZlP15LV4le-66" value="konkretne mere" style="ellipse;whiteSpace=wrap;html=1;" parent="1" vertex="1">
          <mxGeometry x="305" y="210" width="75" height="50" as="geometry" />
        </mxCell>
        <mxCell id="MHaZ8JLug0pjG2hCf8hZ-29" value="&lt;font style=&quot;font-size: 14px;&quot;&gt;Stavka o osposobljavanju i proveri&lt;/font&gt;" style="shape=ext;margin=3;double=1;whiteSpace=wrap;html=1;align=center;rounded=0;" parent="1" vertex="1">
          <mxGeometry x="130" y="-70" width="120" height="70" as="geometry" />
        </mxCell>
        <mxCell id="MHaZ8JLug0pjG2hCf8hZ-31" value="&lt;font style=&quot;font-size: 12px;&quot;&gt;(1,1) Poseduje&lt;/font&gt;" style="edgeLabel;html=1;align=center;verticalAlign=middle;resizable=0;points=[];fontSize=12;" parent="1" vertex="1" connectable="0">
          <mxGeometry x="185" y="94.5" as="geometry" />
        </mxCell>
        <mxCell id="rgm7gioy1w3zKFnJGQ7F-2" style="rounded=0;orthogonalLoop=1;jettySize=auto;html=1;exitX=0;exitY=1;exitDx=0;exitDy=0;entryX=1;entryY=0.75;entryDx=0;entryDy=0;endArrow=none;endFill=0;" parent="1" source="rgm7gioy1w3zKFnJGQ7F-1" target="MHaZ8JLug0pjG2hCf8hZ-29" edge="1">
          <mxGeometry relative="1" as="geometry" />
        </mxCell>
        <mxCell id="rgm7gioy1w3zKFnJGQ7F-1" value="rb#" style="ellipse;whiteSpace=wrap;html=1;" parent="1" vertex="1">
          <mxGeometry x="360" y="-90" width="70" height="50" as="geometry" />
        </mxCell>
        <mxCell id="-jbn8MROxnnTMncb0BOT-1" style="rounded=0;orthogonalLoop=1;jettySize=auto;html=1;exitX=0.5;exitY=0;exitDx=0;exitDy=0;startArrow=none;startFill=0;endArrow=none;endFill=0;entryX=0.66;entryY=1;entryDx=0;entryDy=0;entryPerimeter=0;" edge="1" parent="1" source="-jbn8MROxnnTMncb0BOT-4" target="p6OjkSHZk2NeHFK_y6Gc-18">
          <mxGeometry relative="1" as="geometry">
            <mxPoint x="680" y="184" as="targetPoint" />
          </mxGeometry>
        </mxCell>
        <mxCell id="-jbn8MROxnnTMncb0BOT-2" value="&lt;font style=&quot;font-size: 12px;&quot;&gt;(0,M) Poseduje&lt;/font&gt;" style="edgeLabel;html=1;align=center;verticalAlign=middle;resizable=0;points=[];" vertex="1" connectable="0" parent="-jbn8MROxnnTMncb0BOT-1">
          <mxGeometry x="0.3" y="-2" relative="1" as="geometry">
            <mxPoint as="offset" />
          </mxGeometry>
        </mxCell>
        <mxCell id="-jbn8MROxnnTMncb0BOT-3" style="rounded=0;orthogonalLoop=1;jettySize=auto;html=1;exitX=0.5;exitY=1;exitDx=0;exitDy=0;startArrow=none;startFill=0;endArrow=none;endFill=0;entryX=0;entryY=0.5;entryDx=0;entryDy=0;" edge="1" parent="1" source="-jbn8MROxnnTMncb0BOT-4" target="-jbn8MROxnnTMncb0BOT-9">
          <mxGeometry relative="1" as="geometry">
            <mxPoint x="653" y="395" as="targetPoint" />
          </mxGeometry>
        </mxCell>
        <mxCell id="-jbn8MROxnnTMncb0BOT-4" value="boravi" style="rhombus;whiteSpace=wrap;html=1;" vertex="1" parent="1">
          <mxGeometry x="713" y="270" width="80" height="50" as="geometry" />
        </mxCell>
        <mxCell id="-jbn8MROxnnTMncb0BOT-5" style="rounded=0;orthogonalLoop=1;jettySize=auto;html=1;exitX=0;exitY=0.25;exitDx=0;exitDy=0;endArrow=none;endFill=0;" edge="1" parent="1" source="-jbn8MROxnnTMncb0BOT-6" target="-jbn8MROxnnTMncb0BOT-8">
          <mxGeometry relative="1" as="geometry" />
        </mxCell>
        <mxCell id="-jbn8MROxnnTMncb0BOT-6" value="&lt;font style=&quot;font-size: 14px;&quot;&gt;Grad&lt;/font&gt;" style="rounded=0;whiteSpace=wrap;html=1;" vertex="1" parent="1">
          <mxGeometry x="898" y="245" width="100" height="35" as="geometry" />
        </mxCell>
        <mxCell id="-jbn8MROxnnTMncb0BOT-7" value="naziv" style="ellipse;whiteSpace=wrap;html=1;" vertex="1" parent="1">
          <mxGeometry x="888" y="180" width="70" height="40" as="geometry" />
        </mxCell>
        <mxCell id="-jbn8MROxnnTMncb0BOT-8" value="id#" style="ellipse;whiteSpace=wrap;html=1;" vertex="1" parent="1">
          <mxGeometry x="808" y="180" width="70" height="40" as="geometry" />
        </mxCell>
        <mxCell id="-jbn8MROxnnTMncb0BOT-9" value="&lt;span style=&quot;font-size: 14px;&quot;&gt;Adresa&lt;/span&gt;" style="shape=ext;margin=3;double=1;whiteSpace=wrap;html=1;align=center;rounded=0;" vertex="1" parent="1">
          <mxGeometry x="898" y="402" width="110" height="50" as="geometry" />
        </mxCell>
        <mxCell id="-jbn8MROxnnTMncb0BOT-10" style="rounded=0;orthogonalLoop=1;jettySize=auto;html=1;exitX=0.33;exitY=1.057;exitDx=0;exitDy=0;entryX=0.318;entryY=0.04;entryDx=0;entryDy=0;entryPerimeter=0;exitPerimeter=0;" edge="1" parent="1" source="-jbn8MROxnnTMncb0BOT-6" target="-jbn8MROxnnTMncb0BOT-9">
          <mxGeometry relative="1" as="geometry" />
        </mxCell>
        <mxCell id="-jbn8MROxnnTMncb0BOT-11" value="naziv ulice" style="ellipse;whiteSpace=wrap;html=1;" vertex="1" parent="1">
          <mxGeometry x="1018" y="340" width="70" height="40" as="geometry" />
        </mxCell>
        <mxCell id="-jbn8MROxnnTMncb0BOT-12" value="id#" style="ellipse;whiteSpace=wrap;html=1;" vertex="1" parent="1">
          <mxGeometry x="948" y="330" width="70" height="40" as="geometry" />
        </mxCell>
        <mxCell id="-jbn8MROxnnTMncb0BOT-13" style="rounded=0;orthogonalLoop=1;jettySize=auto;html=1;exitX=0.5;exitY=1;exitDx=0;exitDy=0;endArrow=none;endFill=0;" edge="1" parent="1" source="-jbn8MROxnnTMncb0BOT-12" target="-jbn8MROxnnTMncb0BOT-9">
          <mxGeometry relative="1" as="geometry">
            <mxPoint x="918" y="397" as="targetPoint" />
          </mxGeometry>
        </mxCell>
        <mxCell id="-jbn8MROxnnTMncb0BOT-14" style="rounded=0;orthogonalLoop=1;jettySize=auto;html=1;exitX=0;exitY=1;exitDx=0;exitDy=0;entryX=0.873;entryY=0.02;entryDx=0;entryDy=0;entryPerimeter=0;endArrow=none;endFill=0;" edge="1" parent="1" source="-jbn8MROxnnTMncb0BOT-11" target="-jbn8MROxnnTMncb0BOT-9">
          <mxGeometry relative="1" as="geometry" />
        </mxCell>
        <mxCell id="-jbn8MROxnnTMncb0BOT-15" value="&lt;span style=&quot;color: rgb(0, 0, 0); font-family: Helvetica; font-size: 12px; font-style: normal; font-variant-ligatures: normal; font-variant-caps: normal; font-weight: 400; letter-spacing: normal; orphans: 2; text-align: center; text-indent: 0px; text-transform: none; widows: 2; word-spacing: 0px; -webkit-text-stroke-width: 0px; background-color: rgb(255, 255, 255); text-decoration-thickness: initial; text-decoration-style: initial; text-decoration-color: initial; float: none; display: inline !important;&quot;&gt;(0,1) Posedovana&lt;/span&gt;" style="text;whiteSpace=wrap;html=1;" vertex="1" parent="1">
          <mxGeometry x="768" y="402" width="110" height="25" as="geometry" />
        </mxCell>
        <mxCell id="-jbn8MROxnnTMncb0BOT-16" style="rounded=0;orthogonalLoop=1;jettySize=auto;html=1;exitX=0.5;exitY=1;exitDx=0;exitDy=0;entryX=0.38;entryY=0.057;entryDx=0;entryDy=0;entryPerimeter=0;endArrow=none;endFill=0;" edge="1" parent="1" source="-jbn8MROxnnTMncb0BOT-7" target="-jbn8MROxnnTMncb0BOT-6">
          <mxGeometry relative="1" as="geometry" />
        </mxCell>
        <mxCell id="-jbn8MROxnnTMncb0BOT-17" value="&lt;font style=&quot;font-size: 12px;&quot;&gt;(1,M) Poseduje&lt;/font&gt;" style="edgeLabel;html=1;align=center;verticalAlign=middle;resizable=0;points=[];fontSize=12;" vertex="1" connectable="0" parent="1">
          <mxGeometry x="953" y="290" as="geometry" />
        </mxCell>
        <mxCell id="-jbn8MROxnnTMncb0BOT-18" value="broj" style="ellipse;whiteSpace=wrap;html=1;" vertex="1" parent="1">
          <mxGeometry x="987.9999999999999" y="480" width="50" height="38" as="geometry" />
        </mxCell>
        <mxCell id="-jbn8MROxnnTMncb0BOT-19" style="rounded=0;orthogonalLoop=1;jettySize=auto;html=1;exitX=0.5;exitY=0;exitDx=0;exitDy=0;entryX=0.318;entryY=0.95;entryDx=0;entryDy=0;entryPerimeter=0;endArrow=none;endFill=0;" edge="1" parent="1" source="-jbn8MROxnnTMncb0BOT-18">
          <mxGeometry relative="1" as="geometry">
            <mxPoint x="986.3399999999999" y="452" as="targetPoint" />
          </mxGeometry>
        </mxCell>
      </root>
    </mxGraphModel>
  </diagram>
</mxfile>
